<?xml version="1.0" standalone="no"?>
<!DOCTYPE svg PUBLIC "-//W3C//DTD SVG 20010904//EN"
 "http://www.w3.org/TR/2001/REC-SVG-20010904/DTD/svg10.dtd">
<svg version="1.0" xmlns="http://www.w3.org/2000/svg"
 width="512.000000pt" height="512.000000pt" viewBox="0 0 512.000000 512.000000"
 preserveAspectRatio="xMidYMid meet">

<g transform="translate(0.000000,512.000000) scale(0.100000,-0.100000)"
fill="#000000" stroke="none">
<path d="M4686 4980 c-56 -17 -109 -66 -190 -174 -104 -139 -1778 -2453 -1797
-2483 -12 -20 -19 -22 -65 -17 -68 8 -88 -6 -188 -135 l-78 -99 -36 10 c-60
17 -181 13 -244 -6 -35 -12 -81 -38 -125 -73 -82 -65 -154 -109 -330 -197
-451 -225 -863 -318 -1271 -287 -146 12 -165 11 -187 -3 -19 -13 -25 -25 -25
-55 0 -48 40 -110 140 -215 75 -78 75 -79 52 -93 -59 -40 -2 -122 171 -245 53
-39 97 -73 97 -77 0 -3 -9 -12 -20 -19 -47 -29 -8 -102 97 -181 135 -101 287
-161 411 -161 48 0 53 -2 47 -17 -4 -10 -22 -53 -39 -96 -28 -73 -29 -81 -15
-105 22 -40 63 -49 319 -72 254 -22 726 -28 880 -10 108 12 117 22 136 131 11
63 48 168 149 419 74 184 149 384 167 443 28 94 36 111 61 124 82 42 111 250
53 384 -5 11 19 45 79 114 113 128 131 166 106 213 -7 14 121 196 630 892 932
1274 1278 1759 1295 1816 48 160 -118 322 -280 274z m112 -166 c32 -22 28 -63
-11 -120 -33 -50 -1668 -2308 -1783 -2464 -35 -47 -69 -94 -77 -105 -13 -18
-16 -17 -71 29 l-56 48 33 47 c19 25 335 460 702 966 367 506 769 1062 893
1235 123 173 240 330 258 348 38 36 76 42 112 16z m-2052 -2765 c66 -50 119
-97 118 -103 -2 -23 -107 -146 -118 -137 -49 36 -236 194 -236 197 0 8 104
133 111 133 4 1 60 -40 125 -90z m-444 -119 c127 -39 365 -227 413 -326 20
-41 34 -164 18 -164 -17 0 -269 155 -348 215 -107 80 -288 256 -276 268 11 11
65 25 102 26 15 1 56 -8 91 -19z m-20 -386 c59 -44 155 -109 213 -144 58 -36
113 -69 121 -75 25 -18 -70 -299 -212 -630 -64 -151 -124 -323 -124 -360 0 -7
-17 -15 -37 -19 -49 -8 -649 -6 -687 3 -29 6 -29 6 24 35 76 41 242 169 284
218 60 70 43 148 -32 148 -28 0 -46 -11 -106 -66 -92 -86 -194 -155 -320 -215
-93 -45 -126 -56 -126 -44 0 22 54 117 74 130 30 20 66 75 66 101 0 24 -39 64
-63 64 -11 0 -49 -12 -85 -26 -92 -37 -173 -48 -251 -34 -57 10 -169 56 -159
65 2 2 52 9 111 15 130 13 214 38 329 97 110 56 178 115 178 151 -1 31 -16 54
-47 70 -34 18 -46 15 -114 -32 -122 -83 -250 -134 -359 -142 -62 -5 -68 -3
-140 37 l-75 43 39 7 c45 7 86 47 86 83 0 33 -35 59 -120 90 -88 31 -196 98
-295 182 l-70 59 165 6 c201 7 347 29 545 79 282 72 569 191 805 334 l74 45
101 -98 c55 -54 149 -134 207 -177z"/>
</g>
</svg>
